<svg id="svg" version="1.1" xmlns="http://www.w3.org/2000/svg" xmlns:xlink="http://www.w3.org/1999/xlink" width="400" height="400" viewBox="0, 0, 400,400"><g id="svgg"><path id="path0" d="M54.000 38.651 C 54.000 38.970,53.581 39.200,53.000 39.200 C 52.450 39.200,52.000 39.020,52.000 38.800 C 52.000 38.580,51.550 38.400,51.000 38.400 C 50.450 38.400,50.000 38.560,50.000 38.757 C 50.000 38.953,49.550 39.226,49.000 39.364 C 48.450 39.502,48.000 39.805,48.000 40.036 C 48.000 40.268,47.717 40.740,47.370 41.087 C 46.888 41.569,46.802 42.162,47.003 43.625 C 47.378 46.346,46.346 47.378,43.625 47.003 C 42.162 46.802,41.569 46.888,41.087 47.370 C 40.740 47.717,40.268 48.000,40.036 48.000 C 39.805 48.000,39.502 48.450,39.364 49.000 C 39.226 49.550,38.953 50.000,38.757 50.000 C 38.560 50.000,38.400 50.450,38.400 51.000 C 38.400 51.550,38.580 52.000,38.800 52.000 C 39.020 52.000,39.200 52.450,39.200 53.000 C 39.200 53.581,38.970 54.000,38.651 54.000 C 38.274 54.000,38.115 54.484,38.143 55.552 C 38.172 56.631,38.339 57.045,38.692 56.909 C 38.973 56.802,39.200 57.002,39.200 57.357 C 39.200 57.711,38.933 58.000,38.606 58.000 C 38.082 58.000,38.012 74.684,38.015 199.984 C 38.018 325.046,38.089 341.941,38.609 341.741 C 39.037 341.577,39.200 341.802,39.200 342.557 C 39.200 343.144,38.974 343.600,38.682 343.600 C 38.328 343.600,38.148 344.293,38.113 345.800 C 38.066 347.806,38.138 348.001,38.931 348.006 C 39.409 348.009,40.070 348.201,40.400 348.432 C 40.870 348.761,40.805 348.797,40.100 348.599 C 39.442 348.414,39.200 348.515,39.200 348.973 C 39.200 349.318,39.335 349.600,39.500 349.601 C 39.665 349.601,39.819 350.136,39.842 350.789 C 39.865 351.450,39.715 351.871,39.502 351.739 C 39.292 351.610,39.324 351.885,39.574 352.352 C 39.824 352.818,40.247 353.186,40.514 353.168 C 40.880 353.145,40.877 353.087,40.500 352.935 C 39.760 352.636,39.894 352.002,40.700 351.987 C 41.345 351.976,41.341 351.930,40.651 351.408 C 39.960 350.884,39.953 350.790,40.552 350.191 C 41.151 349.592,41.193 349.614,41.100 350.471 C 41.017 351.243,41.169 351.384,42.000 351.304 C 42.985 351.209,42.987 351.213,42.100 351.591 C 41.195 351.976,40.854 352.800,41.600 352.800 C 41.820 352.800,42.000 352.620,42.000 352.400 C 42.000 352.180,42.180 352.000,42.400 352.000 C 42.620 352.000,42.800 352.270,42.800 352.600 C 42.800 352.930,43.001 353.200,43.247 353.200 C 43.492 353.200,43.603 352.853,43.492 352.430 C 43.351 351.890,43.456 351.723,43.845 351.873 C 44.150 351.990,44.400 352.524,44.400 353.059 C 44.400 353.943,44.547 354.024,45.989 353.939 C 47.718 353.837,48.502 354.243,47.624 354.785 C 47.162 355.071,47.177 355.234,47.718 355.775 C 48.074 356.132,48.263 356.691,48.137 357.019 C 47.476 358.743,50.081 361.209,51.941 360.619 C 52.476 360.449,52.891 360.603,53.194 361.082 C 53.515 361.593,53.707 361.655,53.857 361.300 C 54.168 360.560,54.800 360.694,54.801 361.500 C 54.802 362.001,55.142 362.212,56.001 362.243 C 56.660 362.266,57.200 362.131,57.200 361.943 C 57.200 361.754,57.560 361.600,58.000 361.600 C 58.440 361.600,58.800 361.780,58.800 362.000 C 58.800 362.266,107.261 362.395,203.400 362.386 L 348.000 362.372 348.006 361.486 C 348.010 360.966,348.134 360.786,348.306 361.050 C 348.468 361.297,349.230 361.610,350.000 361.745 C 350.770 361.880,351.153 361.880,350.850 361.745 C 350.120 361.420,348.712 360.000,349.120 360.000 C 349.296 360.000,349.644 360.204,349.893 360.453 C 350.457 361.017,351.632 360.613,351.459 359.915 C 351.389 359.632,351.406 359.533,351.498 359.696 C 351.589 359.859,351.952 359.705,352.304 359.353 C 352.891 358.766,352.889 358.681,352.272 358.336 C 351.903 358.130,351.600 357.763,351.600 357.522 C 351.600 357.281,352.050 357.569,352.600 358.162 C 353.150 358.756,353.600 359.186,353.600 359.118 C 353.600 359.050,353.433 358.411,353.228 357.697 C 352.932 356.666,352.973 356.400,353.428 356.400 C 354.136 356.400,354.219 354.140,353.520 353.907 C 353.146 353.782,353.146 353.681,353.520 353.450 C 353.784 353.286,354.000 353.343,354.000 353.576 C 354.000 353.809,354.540 354.000,355.200 354.000 C 355.974 354.000,356.400 353.797,356.400 353.428 C 356.400 352.973,356.666 352.932,357.697 353.228 C 358.411 353.433,359.050 353.600,359.118 353.600 C 359.186 353.600,358.756 353.150,358.162 352.600 C 357.569 352.050,357.281 351.600,357.522 351.600 C 357.763 351.600,358.130 351.903,358.336 352.272 C 358.681 352.889,358.766 352.891,359.353 352.304 C 359.705 351.952,359.859 351.589,359.696 351.498 C 359.533 351.406,359.632 351.389,359.915 351.459 C 360.613 351.632,361.017 350.457,360.453 349.893 C 360.204 349.644,360.000 349.296,360.000 349.120 C 360.000 348.712,361.420 350.120,361.745 350.850 C 361.880 351.153,361.880 350.770,361.745 350.000 C 361.610 349.230,361.297 348.468,361.050 348.306 C 360.786 348.134,360.966 348.010,361.486 348.006 L 362.372 348.000 362.386 203.400 C 362.395 107.261,362.266 58.800,362.000 58.800 C 361.780 58.800,361.600 58.440,361.600 58.000 C 361.600 57.560,361.754 57.200,361.943 57.200 C 362.131 57.200,362.266 56.660,362.243 56.001 C 362.212 55.142,362.001 54.802,361.500 54.801 C 360.694 54.800,360.560 54.168,361.300 53.857 C 361.655 53.707,361.593 53.515,361.082 53.194 C 360.603 52.891,360.449 52.476,360.619 51.941 C 361.209 50.081,358.743 47.476,357.019 48.137 C 356.691 48.263,356.132 48.074,355.775 47.718 C 355.226 47.169,355.072 47.156,354.764 47.635 C 354.243 48.444,353.662 47.454,353.907 46.174 C 354.114 45.094,351.884 44.661,351.465 45.700 C 351.344 45.999,351.250 45.918,351.232 45.500 C 351.214 45.115,351.020 44.800,350.800 44.800 C 350.580 44.800,350.400 44.080,350.400 43.200 C 350.400 41.645,350.361 41.600,349.033 41.600 C 346.865 41.600,346.564 41.352,346.722 39.692 L 346.865 38.200 344.851 38.116 C 343.230 38.049,342.881 38.147,343.062 38.616 C 343.216 39.020,343.012 39.200,342.400 39.200 C 341.783 39.200,341.583 39.021,341.741 38.609 C 341.941 38.089,325.046 38.018,199.984 38.015 C 74.684 38.012,58.000 38.082,58.000 38.606 C 58.000 38.933,57.711 39.200,57.357 39.200 C 57.002 39.200,56.802 38.973,56.909 38.692 C 57.045 38.339,56.631 38.172,55.552 38.143 C 54.484 38.115,54.000 38.274,54.000 38.651 M347.200 39.357 C 347.200 40.788,347.696 41.200,349.421 41.200 C 350.258 41.200,350.369 41.025,350.322 39.782 C 350.293 39.003,350.164 38.523,350.035 38.717 C 349.504 39.516,348.000 39.549,348.000 38.763 C 348.000 38.343,347.820 38.000,347.600 38.000 C 347.380 38.000,347.200 38.611,347.200 39.357 M51.000 39.540 C 49.760 39.943,48.000 41.664,48.000 42.472 C 48.000 42.872,47.820 43.200,47.600 43.200 C 47.380 43.200,47.200 42.840,47.200 42.400 C 47.200 41.960,47.368 41.600,47.573 41.600 C 47.778 41.600,48.064 41.228,48.208 40.774 C 48.488 39.892,49.692 39.241,51.000 39.265 L 51.800 39.280 51.000 39.540 M351.754 39.526 C 351.892 39.749,351.779 40.015,351.502 40.116 C 351.100 40.263,351.100 40.406,351.500 40.830 C 351.912 41.266,352.000 41.240,352.000 40.680 C 352.000 39.890,352.639 39.767,352.935 40.500 C 353.087 40.877,353.145 40.880,353.168 40.514 C 353.186 40.247,352.818 39.824,352.352 39.574 C 351.855 39.308,351.607 39.288,351.754 39.526 M54.800 39.895 C 54.470 40.024,54.002 40.398,53.761 40.725 C 53.446 41.153,53.242 41.191,53.037 40.861 C 52.607 40.163,53.013 39.786,54.268 39.720 C 54.891 39.686,55.130 39.765,54.800 39.895 M52.765 41.522 C 53.304 41.965,53.263 41.978,52.500 41.608 C 52.005 41.368,51.614 40.863,51.632 40.486 C 51.657 39.930,51.707 39.914,51.896 40.400 C 52.025 40.730,52.416 41.235,52.765 41.522 M351.275 43.092 C 351.392 44.509,351.484 44.604,352.800 44.670 C 353.570 44.709,353.885 44.650,353.500 44.541 C 353.115 44.431,352.800 44.308,352.800 44.268 C 352.800 44.228,352.957 43.647,353.149 42.979 C 353.478 41.831,353.432 41.757,352.324 41.673 C 351.199 41.587,351.156 41.645,351.275 43.092 M52.100 43.533 C 51.302 44.369,50.991 44.321,51.338 43.417 C 51.468 43.078,51.851 42.800,52.187 42.800 C 52.706 42.800,52.692 42.913,52.100 43.533 M50.008 44.100 C 50.378 44.863,50.365 44.904,49.922 44.365 C 49.635 44.016,49.130 43.625,48.800 43.496 C 48.314 43.307,48.330 43.257,48.886 43.232 C 49.263 43.214,49.768 43.605,50.008 44.100 M48.986 45.471 C 48.660 45.797,48.472 46.193,48.569 46.349 C 48.665 46.506,48.354 46.663,47.877 46.699 C 47.195 46.751,47.137 46.686,47.605 46.396 C 47.932 46.193,48.224 45.796,48.254 45.513 C 48.283 45.231,48.328 44.871,48.354 44.713 C 48.379 44.554,48.665 44.527,48.990 44.651 C 49.509 44.851,49.508 44.949,48.986 45.471 M356.432 47.449 C 356.449 47.870,356.552 47.981,356.665 47.700 C 356.902 47.112,358.400 47.019,358.400 47.592 C 358.400 47.808,358.834 48.094,359.365 48.227 C 359.940 48.371,360.429 48.860,360.573 49.435 C 360.706 49.966,360.992 50.400,361.208 50.400 C 361.423 50.400,361.600 50.760,361.600 51.200 C 361.600 51.640,361.420 52.000,361.200 52.000 C 360.980 52.000,360.800 52.180,360.800 52.400 C 360.800 52.620,361.094 52.800,361.454 52.800 C 362.501 52.800,361.884 49.521,360.596 48.232 C 359.242 46.878,356.385 46.341,356.432 47.449 M43.200 47.600 C 43.200 47.820,42.872 48.000,42.472 48.000 C 41.679 48.000,39.976 49.722,39.505 51.000 C 39.329 51.480,39.291 51.239,39.411 50.400 C 39.521 49.630,39.923 48.782,40.305 48.516 C 40.687 48.250,41.180 47.854,41.400 47.636 C 41.926 47.115,43.200 47.089,43.200 47.600 M46.692 47.972 C 46.660 48.397,46.506 48.665,46.349 48.569 C 46.193 48.472,45.780 48.677,45.432 49.025 C 44.866 49.591,44.740 49.482,44.826 48.500 C 44.841 48.335,45.113 48.253,45.432 48.319 C 45.750 48.384,46.118 48.159,46.248 47.819 C 46.572 46.975,46.762 47.041,46.692 47.972 M44.365 49.922 C 44.904 50.365,44.863 50.378,44.100 50.008 C 43.605 49.768,43.214 49.263,43.232 48.886 C 43.257 48.330,43.307 48.314,43.496 48.800 C 43.625 49.130,44.016 49.635,44.365 49.922 M354.639 49.096 C 355.140 49.597,355.382 49.653,355.501 49.296 C 355.690 48.729,356.400 48.619,356.400 49.157 C 356.400 50.166,354.242 50.007,353.843 48.969 C 353.553 48.213,353.794 48.251,354.639 49.096 M356.967 50.543 C 356.697 51.245,354.800 51.470,354.800 50.800 C 354.800 50.580,355.149 50.400,355.576 50.400 C 356.003 50.400,356.471 50.208,356.616 49.973 C 357.001 49.351,357.262 49.774,356.967 50.543 M43.700 51.933 C 42.902 52.769,42.591 52.721,42.938 51.817 C 43.068 51.478,43.451 51.200,43.787 51.200 C 44.306 51.200,44.292 51.313,43.700 51.933 M41.608 52.500 C 41.978 53.263,41.965 53.304,41.522 52.765 C 41.235 52.416,40.730 52.025,40.400 51.896 C 39.914 51.707,39.930 51.657,40.486 51.632 C 40.863 51.614,41.368 52.005,41.608 52.500 M358.665 52.841 C 358.352 53.678,358.156 53.866,358.066 53.418 C 357.896 52.571,358.262 51.600,358.753 51.600 C 358.971 51.600,358.934 52.124,358.665 52.841 M40.985 53.175 C 41.112 53.382,40.969 53.697,40.667 53.875 C 40.365 54.054,40.009 54.470,39.876 54.800 C 39.697 55.248,39.782 53.464,39.967 52.900 C 40.051 52.644,40.778 52.840,40.985 53.175 M359.615 53.182 C 359.137 53.485,359.270 53.780,360.348 54.810 C 361.072 55.502,361.576 56.158,361.467 56.267 C 361.248 56.485,358.800 54.044,358.800 53.607 C 358.800 53.196,359.278 52.799,359.767 52.806 C 360.005 52.809,359.937 52.979,359.615 53.182 M321.200 200.200 L 321.200 321.200 200.200 321.200 L 79.200 321.200 79.200 200.200 L 79.200 79.200 200.200 79.200 L 321.200 79.200 321.200 200.200 M358.800 349.600 C 358.800 350.177,358.549 350.387,357.900 350.354 C 357.223 350.319,357.173 350.262,357.700 350.124 C 358.085 350.024,358.400 349.685,358.400 349.371 C 358.400 349.057,358.490 348.800,358.600 348.800 C 358.710 348.800,358.800 349.160,358.800 349.600 M38.400 350.600 C 38.400 350.930,38.580 351.200,38.800 351.200 C 39.020 351.200,39.200 350.930,39.200 350.600 C 39.200 350.270,39.020 350.000,38.800 350.000 C 38.580 350.000,38.400 350.270,38.400 350.600 M354.800 352.200 C 354.800 352.530,354.620 352.800,354.400 352.800 C 354.180 352.800,354.000 352.530,354.000 352.200 C 354.000 351.870,354.180 351.600,354.400 351.600 C 354.620 351.600,354.800 351.870,354.800 352.200 M49.757 354.631 C 50.020 355.317,49.653 356.400,49.157 356.400 C 48.619 356.400,48.729 355.690,49.296 355.501 C 49.653 355.382,49.597 355.140,49.096 354.639 C 48.251 353.794,48.213 353.553,48.969 353.843 C 49.282 353.964,49.636 354.318,49.757 354.631 M352.800 354.400 C 352.800 354.620,352.530 354.800,352.200 354.800 C 351.870 354.800,351.600 354.620,351.600 354.400 C 351.600 354.180,351.870 354.000,352.200 354.000 C 352.530 354.000,352.800 354.180,352.800 354.400 M51.200 355.800 C 51.200 356.350,51.125 356.800,51.033 356.800 C 50.941 356.800,50.536 356.916,50.133 357.059 C 49.533 357.271,49.491 357.220,49.900 356.779 C 50.175 356.482,50.400 355.916,50.400 355.520 C 50.400 355.124,50.580 354.800,50.800 354.800 C 51.020 354.800,51.200 355.250,51.200 355.800 M46.951 357.984 C 47.386 360.706,52.800 363.918,52.800 361.454 C 52.800 361.094,52.620 360.800,52.400 360.800 C 52.180 360.800,52.000 360.980,52.000 361.200 C 52.000 361.420,51.640 361.600,51.200 361.600 C 50.760 361.600,50.400 361.423,50.400 361.208 C 50.400 360.992,49.966 360.706,49.435 360.573 C 48.860 360.429,48.371 359.940,48.227 359.365 C 48.094 358.834,47.808 358.400,47.592 358.400 C 47.019 358.400,47.112 356.902,47.700 356.665 C 47.981 356.552,47.870 356.449,47.449 356.432 C 46.795 356.404,46.731 356.605,46.951 357.984 M350.400 358.000 C 350.400 358.577,350.149 358.787,349.500 358.754 C 348.823 358.719,348.773 358.662,349.300 358.524 C 349.685 358.424,350.000 358.085,350.000 357.771 C 350.000 357.457,350.090 357.200,350.200 357.200 C 350.310 357.200,350.400 357.560,350.400 358.000 M53.000 358.561 C 51.701 359.130,51.371 359.094,51.784 358.427 C 51.929 358.192,52.532 358.008,53.124 358.018 L 54.200 358.036 53.000 358.561 M55.173 360.034 C 55.883 360.713,56.376 361.358,56.267 361.467 C 56.158 361.576,55.502 361.072,54.810 360.348 C 53.780 359.270,53.485 359.137,53.182 359.615 C 52.979 359.937,52.809 360.005,52.806 359.767 C 52.799 359.278,53.196 358.800,53.607 358.800 C 53.758 358.800,54.463 359.355,55.173 360.034 " stroke="none" fill="#94ccfc" fill-rule="evenodd"></path><path id="path1" d="M350.284 38.800 C 350.399 39.240,350.652 39.600,350.847 39.600 C 351.041 39.600,351.200 39.240,351.200 38.800 C 351.200 38.360,350.947 38.000,350.637 38.000 C 350.272 38.000,350.148 38.280,350.284 38.800 M359.550 47.082 C 360.257 47.363,361.437 48.543,361.718 49.250 C 361.892 49.686,361.942 49.676,361.962 49.200 C 361.992 48.460,360.285 46.788,359.544 46.832 C 359.092 46.858,359.093 46.900,359.550 47.082 M113.381 146.905 C 113.275 147.183,113.235 152.628,113.294 159.005 L 113.400 170.600 199.600 170.709 C 247.010 170.769,286.205 170.721,286.700 170.602 L 287.600 170.385 287.600 158.635 C 287.600 148.290,287.524 146.857,286.967 146.643 C 285.588 146.114,113.585 146.373,113.381 146.905 M146.582 188.503 C 146.475 188.782,146.435 194.228,146.494 200.605 L 146.600 212.200 200.200 212.200 L 253.800 212.200 253.800 200.200 L 253.800 188.200 200.288 188.099 C 157.417 188.017,146.737 188.098,146.582 188.503 M113.395 230.500 C 113.275 230.995,113.226 236.440,113.288 242.600 L 113.400 253.800 199.600 253.909 C 247.010 253.969,286.205 253.921,286.700 253.802 L 287.600 253.585 287.600 242.164 C 287.600 232.799,287.497 230.640,287.029 230.171 C 286.537 229.680,274.401 229.600,200.036 229.600 L 113.615 229.600 113.395 230.500 M46.832 359.544 C 46.788 360.285,48.460 361.992,49.200 361.962 C 49.676 361.942,49.686 361.892,49.250 361.718 C 48.543 361.437,47.363 360.257,47.082 359.550 C 46.900 359.093,46.858 359.092,46.832 359.544 " stroke="none" fill="#546c7c" fill-rule="evenodd"></path><path id="path2" d="M52.000 38.600 C 52.000 38.930,52.270 39.200,52.600 39.200 C 52.930 39.200,53.203 38.975,53.206 38.700 C 53.210 38.367,53.342 38.400,53.600 38.800 C 53.931 39.313,53.989 39.298,53.994 38.700 C 53.998 38.218,53.688 38.000,53.000 38.000 C 52.378 38.000,52.000 38.227,52.000 38.600 M57.067 38.267 C 56.606 38.727,56.775 39.200,57.400 39.200 C 57.730 39.200,58.000 38.930,58.000 38.600 C 58.000 37.975,57.527 37.806,57.067 38.267 M341.477 38.656 C 341.741 39.343,343.329 39.386,343.100 38.700 C 343.009 38.425,342.559 38.180,342.101 38.156 C 341.553 38.127,341.340 38.299,341.477 38.656 M348.000 38.745 C 348.000 39.334,348.220 39.447,349.059 39.287 C 349.858 39.134,350.040 39.212,349.798 39.604 C 349.586 39.947,349.634 40.026,349.938 39.838 C 350.230 39.658,350.400 39.856,350.400 40.376 C 350.400 40.981,350.143 41.200,349.433 41.200 C 347.759 41.200,347.203 40.776,347.147 39.457 L 347.095 38.200 346.839 39.600 C 346.535 41.258,346.874 41.586,348.900 41.594 C 350.382 41.600,350.400 41.619,350.400 43.200 C 350.400 44.080,350.580 44.800,350.800 44.800 C 351.020 44.800,351.214 45.115,351.232 45.500 C 351.250 45.918,351.344 45.999,351.465 45.700 C 351.576 45.425,352.147 45.179,352.733 45.153 C 353.778 45.106,353.776 45.100,352.600 44.851 C 351.132 44.540,350.480 41.606,351.876 41.594 C 352.274 41.591,352.844 41.433,353.143 41.244 C 353.861 40.789,353.358 39.200,352.497 39.200 C 351.957 39.200,351.978 39.296,352.623 39.767 C 353.050 40.079,353.264 40.469,353.099 40.634 C 352.935 40.799,352.800 40.723,352.800 40.467 C 352.800 40.210,352.620 40.000,352.400 40.000 C 352.180 40.000,352.000 40.306,352.000 40.680 C 352.000 41.222,351.899 41.259,351.503 40.863 C 351.186 40.546,351.150 40.264,351.403 40.083 C 351.959 39.686,352.123 38.400,351.618 38.400 C 351.388 38.400,351.200 38.670,351.200 39.000 C 351.200 39.885,350.359 39.730,350.116 38.800 C 349.836 37.728,348.000 37.680,348.000 38.745 M48.800 38.773 C 48.800 38.978,48.459 39.254,48.043 39.386 C 47.163 39.666,46.813 40.688,47.094 42.160 C 47.328 43.382,48.000 43.560,48.000 42.400 C 48.000 41.960,47.820 41.600,47.600 41.600 C 47.380 41.600,47.200 41.401,47.200 41.157 C 47.200 40.914,47.470 40.818,47.800 40.945 C 48.623 41.260,49.600 40.833,49.600 40.157 C 49.600 39.379,48.920 39.462,48.432 40.300 C 48.070 40.921,48.023 40.926,48.012 40.343 C 47.997 39.541,48.844 39.177,50.304 39.357 C 50.907 39.431,51.085 39.414,50.700 39.318 C 50.315 39.223,50.000 38.977,50.000 38.772 C 50.000 38.567,49.730 38.400,49.400 38.400 C 49.070 38.400,48.800 38.568,48.800 38.773 M52.944 40.090 C 52.541 40.743,53.308 41.340,53.761 40.725 C 54.002 40.398,54.470 40.024,54.800 39.895 C 55.130 39.765,54.891 39.686,54.268 39.720 C 53.645 39.753,53.050 39.919,52.944 40.090 M51.632 40.486 C 51.614 40.863,52.005 41.368,52.500 41.608 C 53.263 41.978,53.304 41.965,52.765 41.522 C 52.416 41.235,52.025 40.730,51.896 40.400 C 51.707 39.914,51.657 39.930,51.632 40.486 M352.375 42.015 C 352.072 42.203,351.963 42.496,352.133 42.667 C 352.304 42.837,352.629 42.712,352.855 42.388 C 353.160 41.953,353.209 42.139,353.044 43.100 C 352.875 44.080,352.965 44.400,353.410 44.400 C 353.794 44.400,354.000 43.996,354.000 43.243 C 354.000 42.005,353.276 41.458,352.375 42.015 M51.338 43.417 C 50.991 44.321,51.302 44.369,52.100 43.533 C 52.692 42.913,52.706 42.800,52.187 42.800 C 51.851 42.800,51.468 43.078,51.338 43.417 M48.800 43.496 C 49.130 43.625,49.635 44.016,49.922 44.365 C 50.365 44.904,50.378 44.863,50.008 44.100 C 49.768 43.605,49.263 43.214,48.886 43.232 C 48.330 43.257,48.314 43.307,48.800 43.496 M46.400 44.800 C 46.400 45.460,46.553 46.000,46.739 46.000 C 46.926 46.000,47.094 45.460,47.112 44.800 C 47.131 44.140,46.979 43.600,46.773 43.600 C 46.568 43.600,46.400 44.140,46.400 44.800 M48.354 44.713 C 48.328 44.871,48.283 45.231,48.254 45.513 C 48.224 45.796,47.932 46.193,47.605 46.396 C 47.137 46.686,47.195 46.751,47.877 46.699 C 48.354 46.663,48.665 46.506,48.569 46.349 C 48.472 46.193,48.660 45.797,48.986 45.471 C 49.508 44.949,49.509 44.851,48.990 44.651 C 48.665 44.527,48.379 44.554,48.354 44.713 M43.600 46.773 C 43.600 46.979,44.140 47.131,44.800 47.112 C 45.460 47.094,46.000 46.926,46.000 46.739 C 46.000 46.553,45.460 46.400,44.800 46.400 C 44.140 46.400,43.600 46.568,43.600 46.773 M353.850 46.719 C 353.454 47.360,354.357 48.266,354.764 47.635 C 355.072 47.156,355.226 47.169,355.775 47.718 C 356.132 48.074,356.691 48.263,357.019 48.137 C 358.743 47.476,361.209 50.081,360.619 51.941 C 360.449 52.476,360.603 52.891,361.082 53.194 C 361.593 53.515,361.655 53.707,361.300 53.857 C 360.518 54.185,360.714 54.800,361.600 54.800 C 362.187 54.800,362.400 54.533,362.400 53.800 C 362.400 53.067,362.187 52.800,361.600 52.800 C 360.809 52.800,360.484 52.191,361.138 51.933 C 361.324 51.860,361.600 51.260,361.750 50.600 C 361.952 49.715,361.916 49.558,361.612 50.000 C 361.246 50.533,361.156 50.533,360.806 50.000 C 360.183 49.051,360.325 48.401,361.100 48.650 C 361.638 48.823,361.673 48.785,361.253 48.485 C 360.952 48.270,360.530 47.848,360.315 47.547 C 360.015 47.127,359.977 47.162,360.150 47.700 C 360.399 48.475,359.749 48.617,358.800 47.994 C 358.267 47.644,358.267 47.554,358.800 47.188 C 359.242 46.884,359.085 46.848,358.200 47.049 C 357.540 47.200,356.868 47.520,356.706 47.762 C 356.538 48.013,356.410 47.816,356.406 47.300 C 356.400 46.391,354.342 45.924,353.850 46.719 M40.319 47.073 C 39.944 47.171,39.527 47.600,39.392 48.026 C 39.257 48.452,38.978 48.800,38.773 48.800 C 38.568 48.800,38.400 49.070,38.400 49.400 C 38.400 49.730,38.567 50.000,38.772 50.000 C 38.977 50.000,39.223 50.315,39.318 50.700 C 39.414 51.085,39.431 50.907,39.357 50.304 C 39.177 48.844,39.541 47.997,40.343 48.012 C 40.926 48.023,40.921 48.070,40.300 48.432 C 39.462 48.920,39.379 49.600,40.157 49.600 C 40.833 49.600,41.260 48.623,40.945 47.800 C 40.818 47.470,40.914 47.200,41.157 47.200 C 41.401 47.200,41.600 47.380,41.600 47.600 C 41.600 47.820,41.960 48.000,42.400 48.000 C 42.840 48.000,43.200 47.820,43.200 47.600 C 43.200 47.380,42.945 47.200,42.633 47.200 C 42.321 47.200,41.826 47.131,41.533 47.048 C 41.240 46.964,40.693 46.975,40.319 47.073 M46.248 47.819 C 46.118 48.159,45.750 48.384,45.432 48.319 C 45.113 48.253,44.841 48.335,44.826 48.500 C 44.740 49.482,44.866 49.591,45.432 49.025 C 45.780 48.677,46.193 48.472,46.349 48.569 C 46.506 48.665,46.660 48.397,46.692 47.972 C 46.762 47.041,46.572 46.975,46.248 47.819 M43.232 48.886 C 43.214 49.263,43.605 49.768,44.100 50.008 C 44.863 50.378,44.904 50.365,44.365 49.922 C 44.016 49.635,43.625 49.130,43.496 48.800 C 43.307 48.314,43.257 48.330,43.232 48.886 M353.843 48.969 C 354.242 50.007,356.400 50.166,356.400 49.157 C 356.400 48.619,355.690 48.729,355.501 49.296 C 355.382 49.653,355.140 49.597,354.639 49.096 C 353.794 48.251,353.553 48.213,353.843 48.969 M356.616 49.973 C 356.471 50.208,356.003 50.400,355.576 50.400 C 355.149 50.400,354.800 50.580,354.800 50.800 C 354.800 51.470,356.697 51.245,356.967 50.543 C 357.262 49.774,357.001 49.351,356.616 49.973 M42.938 51.817 C 42.591 52.721,42.902 52.769,43.700 51.933 C 44.292 51.313,44.306 51.200,43.787 51.200 C 43.451 51.200,43.068 51.478,42.938 51.817 M40.400 51.896 C 40.730 52.025,41.235 52.416,41.522 52.765 C 41.965 53.304,41.978 53.263,41.608 52.500 C 41.368 52.005,40.863 51.614,40.486 51.632 C 39.930 51.657,39.914 51.707,40.400 51.896 M358.154 52.177 C 358.032 52.494,357.993 53.052,358.066 53.418 C 358.156 53.866,358.352 53.678,358.665 52.841 C 358.934 52.124,358.971 51.600,358.753 51.600 C 358.545 51.600,358.275 51.859,358.154 52.177 M38.000 53.000 C 38.000 53.688,38.218 53.998,38.700 53.994 C 39.298 53.989,39.313 53.931,38.800 53.600 C 38.400 53.342,38.367 53.210,38.700 53.206 C 38.975 53.203,39.200 52.930,39.200 52.600 C 39.200 52.270,38.930 52.000,38.600 52.000 C 38.227 52.000,38.000 52.378,38.000 53.000 M39.967 52.900 C 39.782 53.464,39.697 55.248,39.876 54.800 C 40.009 54.470,40.365 54.054,40.667 53.875 C 41.237 53.539,41.037 52.800,40.376 52.800 C 40.169 52.800,39.985 52.845,39.967 52.900 M359.067 53.067 C 358.920 53.213,358.800 53.457,358.800 53.607 C 358.800 54.044,361.248 56.485,361.467 56.267 C 361.576 56.158,361.072 55.502,360.348 54.810 C 359.270 53.780,359.137 53.485,359.615 53.182 C 359.937 52.979,360.005 52.809,359.767 52.806 C 359.528 52.803,359.213 52.920,359.067 53.067 M38.267 57.067 C 37.806 57.527,37.975 58.000,38.600 58.000 C 38.930 58.000,39.200 57.730,39.200 57.400 C 39.200 56.775,38.727 56.606,38.267 57.067 M361.600 58.000 C 361.600 58.440,361.742 58.800,361.915 58.800 C 362.088 58.800,362.257 58.440,362.290 58.000 C 362.323 57.560,362.181 57.200,361.975 57.200 C 361.769 57.200,361.600 57.560,361.600 58.000 M38.145 342.440 C 38.145 343.133,38.358 343.600,38.673 343.600 C 38.963 343.600,39.200 343.169,39.200 342.643 C 39.200 342.116,38.963 341.595,38.673 341.483 C 38.311 341.344,38.145 341.645,38.145 342.440 M38.000 349.000 C 38.000 349.622,38.227 350.000,38.600 350.000 C 38.930 350.000,39.200 350.270,39.200 350.600 C 39.200 350.930,39.020 351.200,38.800 351.200 C 38.580 351.200,38.400 351.369,38.400 351.575 C 38.400 351.781,38.732 351.925,39.139 351.895 C 39.866 351.840,40.218 349.603,39.500 349.601 C 39.335 349.600,39.200 349.318,39.200 348.973 C 39.200 348.515,39.442 348.414,40.100 348.599 C 40.805 348.797,40.870 348.761,40.400 348.432 C 39.235 347.617,38.000 347.909,38.000 349.000 M361.100 348.265 C 361.681 348.499,361.784 350.000,361.220 350.000 C 361.011 350.000,360.656 349.685,360.432 349.300 C 360.208 348.915,360.019 348.789,360.012 349.020 C 360.005 349.251,360.204 349.644,360.453 349.893 C 361.017 350.457,360.613 351.632,359.915 351.459 C 359.632 351.389,359.533 351.406,359.696 351.498 C 359.859 351.589,359.705 351.952,359.353 352.304 C 358.766 352.891,358.681 352.889,358.336 352.272 C 358.130 351.903,357.776 351.600,357.552 351.600 C 357.327 351.600,357.426 351.883,357.771 352.229 C 358.650 353.107,358.558 353.323,357.400 353.102 C 356.729 352.974,356.400 353.090,356.400 353.455 C 356.400 353.770,356.823 354.000,357.400 354.000 C 357.950 354.000,358.400 353.856,358.400 353.680 C 358.400 353.504,359.024 353.360,359.787 353.360 C 361.525 353.360,361.767 353.113,361.719 351.388 C 361.697 350.624,361.841 350.000,362.040 350.000 C 362.238 350.000,362.400 349.550,362.400 349.000 C 362.400 348.220,362.202 348.007,361.500 348.032 C 361.005 348.049,360.825 348.154,361.100 348.265 M358.400 349.371 C 358.400 349.685,358.085 350.024,357.700 350.124 C 357.173 350.262,357.223 350.319,357.900 350.354 C 358.549 350.387,358.800 350.177,358.800 349.600 C 358.800 349.160,358.710 348.800,358.600 348.800 C 358.490 348.800,358.400 349.057,358.400 349.371 M40.460 350.242 C 40.001 350.761,40.031 350.937,40.660 351.414 C 41.345 351.933,41.348 351.975,40.700 351.987 C 39.936 352.001,39.706 352.800,40.467 352.800 C 40.723 352.800,40.799 352.935,40.634 353.099 C 40.469 353.264,40.079 353.050,39.767 352.623 C 39.309 351.997,39.200 351.969,39.200 352.481 C 39.200 353.249,40.240 353.705,41.256 353.382 C 41.665 353.252,42.000 353.338,42.000 353.573 C 42.000 353.808,42.540 354.000,43.200 354.000 C 44.501 354.000,45.010 352.320,43.845 351.873 C 43.456 351.723,43.351 351.890,43.492 352.430 C 43.603 352.853,43.492 353.200,43.247 353.200 C 43.001 353.200,42.800 352.930,42.800 352.600 C 42.800 352.270,42.620 352.000,42.400 352.000 C 42.180 352.000,42.000 352.180,42.000 352.400 C 42.000 352.620,41.820 352.800,41.600 352.800 C 40.854 352.800,41.195 351.976,42.100 351.591 C 42.987 351.213,42.985 351.209,42.000 351.304 C 41.178 351.383,41.017 351.240,41.095 350.500 C 41.207 349.448,41.174 349.434,40.460 350.242 M354.000 352.200 C 354.000 352.530,354.180 352.800,354.400 352.800 C 354.620 352.800,354.800 352.530,354.800 352.200 C 354.800 351.870,354.620 351.600,354.400 351.600 C 354.180 351.600,354.000 351.870,354.000 352.200 M46.639 353.894 C 45.949 354.584,46.427 356.400,47.300 356.406 C 47.816 356.410,48.013 356.538,47.762 356.706 C 47.520 356.868,47.200 357.540,47.049 358.200 C 46.848 359.085,46.884 359.242,47.188 358.800 C 47.554 358.267,47.644 358.267,47.994 358.800 C 48.617 359.749,48.475 360.399,47.700 360.150 C 47.162 359.977,47.127 360.015,47.547 360.315 C 47.848 360.530,48.270 360.952,48.485 361.253 C 48.785 361.673,48.823 361.638,48.650 361.100 C 48.401 360.325,49.051 360.183,50.000 360.806 C 50.533 361.156,50.533 361.246,50.000 361.612 C 49.558 361.916,49.715 361.952,50.600 361.750 C 51.260 361.600,51.860 361.324,51.933 361.138 C 52.191 360.484,52.800 360.809,52.800 361.600 C 52.800 362.187,53.067 362.400,53.800 362.400 C 54.533 362.400,54.800 362.187,54.800 361.600 C 54.800 360.714,54.185 360.518,53.857 361.300 C 53.707 361.655,53.515 361.593,53.194 361.082 C 52.891 360.603,52.476 360.449,51.941 360.619 C 50.081 361.209,47.476 358.743,48.137 357.019 C 48.263 356.691,48.060 356.117,47.687 355.744 C 47.195 355.252,47.144 355.019,47.504 354.899 C 47.777 354.808,48.000 354.588,48.000 354.409 C 48.000 353.985,46.947 353.586,46.639 353.894 M48.400 353.784 C 48.400 353.871,48.713 354.256,49.096 354.639 C 49.597 355.140,49.653 355.382,49.296 355.501 C 48.729 355.690,48.619 356.400,49.157 356.400 C 49.653 356.400,50.020 355.317,49.757 354.631 C 49.560 354.120,48.400 353.395,48.400 353.784 M351.600 354.400 C 351.600 354.620,351.870 354.800,352.200 354.800 C 352.530 354.800,352.800 354.620,352.800 354.400 C 352.800 354.180,352.530 354.000,352.200 354.000 C 351.870 354.000,351.600 354.180,351.600 354.400 M50.400 355.520 C 50.400 355.916,50.175 356.482,49.900 356.779 C 49.491 357.220,49.533 357.271,50.133 357.059 C 50.536 356.916,50.941 356.800,51.033 356.800 C 51.125 356.800,51.200 356.350,51.200 355.800 C 51.200 355.250,51.020 354.800,50.800 354.800 C 50.580 354.800,50.400 355.124,50.400 355.520 M353.102 357.400 C 353.323 358.558,353.107 358.650,352.229 357.771 C 351.883 357.426,351.600 357.327,351.600 357.552 C 351.600 357.776,351.903 358.130,352.272 358.336 C 352.889 358.681,352.891 358.766,352.304 359.353 C 351.952 359.705,351.589 359.859,351.498 359.696 C 351.406 359.533,351.389 359.632,351.459 359.915 C 351.632 360.613,350.457 361.017,349.893 360.453 C 349.644 360.204,349.251 360.005,349.020 360.012 C 348.789 360.019,348.915 360.208,349.300 360.432 C 349.685 360.656,350.000 361.011,350.000 361.220 C 350.000 361.784,348.499 361.681,348.265 361.100 C 348.154 360.825,348.049 361.005,348.032 361.500 C 348.007 362.202,348.220 362.400,349.000 362.400 C 349.550 362.400,350.000 362.238,350.000 362.040 C 350.000 361.841,350.624 361.697,351.388 361.719 C 353.113 361.767,353.360 361.525,353.360 359.787 C 353.360 359.024,353.504 358.400,353.680 358.400 C 353.856 358.400,354.000 357.950,354.000 357.400 C 354.000 356.823,353.770 356.400,353.455 356.400 C 353.090 356.400,352.974 356.729,353.102 357.400 M350.000 357.771 C 350.000 358.085,349.685 358.424,349.300 358.524 C 348.773 358.662,348.823 358.719,349.500 358.754 C 350.149 358.787,350.400 358.577,350.400 358.000 C 350.400 357.560,350.310 357.200,350.200 357.200 C 350.090 357.200,350.000 357.457,350.000 357.771 M51.784 358.427 C 51.371 359.094,51.701 359.130,53.000 358.561 L 54.200 358.036 53.124 358.018 C 52.532 358.008,51.929 358.192,51.784 358.427 M53.067 359.067 C 52.920 359.213,52.803 359.528,52.806 359.767 C 52.809 360.005,52.979 359.937,53.182 359.615 C 53.485 359.137,53.780 359.270,54.810 360.348 C 55.502 361.072,56.158 361.576,56.267 361.467 C 56.485 361.248,54.044 358.800,53.607 358.800 C 53.457 358.800,53.213 358.920,53.067 359.067 M57.200 361.975 C 57.200 362.181,57.560 362.323,58.000 362.290 C 58.440 362.257,58.800 362.088,58.800 361.915 C 58.800 361.742,58.440 361.600,58.000 361.600 C 57.560 361.600,57.200 361.769,57.200 361.975 " stroke="none" fill="#74d0dc" fill-rule="evenodd"></path></g></svg>